;TYPE=PLATED
;Layer: PTH_Through
;EasyEDA Pro Client v2.2.40.8, 2025-09-20 19:13:23
;Gerber Generator version 0.3
M48
METRIC,LZ,0000.00000
;Hole size 1 = 0.30500 METRIC
T01C0.30500
;Hole size 2 = 1.00000 METRIC
T02C1.00000
%
G05
G90
T01
X8.52909Y-24.71849
X29.61109Y-12.78049
X42.94825Y-38.94249
X15.46116Y-10.54468
X29.12003Y-11.3667
X46.87192Y-7.85815
X35.94992Y-7.85815
X6.73509Y-24.21049
X7.99696Y-20.90849
X7.73509Y-24.21049
X30.34109Y-13.54249
X7.98096Y-21.67049
X9.75109Y-24.46449
X25.49909Y-13.54249
T02
X30.70606Y-35.94468
X33.24606Y-35.94468
X35.78606Y-35.94468
X38.32603Y-35.94468
X40.86603Y-35.94468
X43.40603Y-35.94468
X45.94603Y-35.94468
X48.48603Y-35.94468
X51.02601Y-35.94468
X53.56601Y-35.94468
X56.10601Y-35.94468
X58.64601Y-35.94468
X61.18601Y-35.94468
X63.72598Y-35.94468
X66.26598Y-35.94468
X68.80598Y-35.94468
X71.34598Y-35.94468
X73.88598Y-35.94468
X76.42596Y-35.94468
X30.70606Y-10.54473
X33.24606Y-10.54473
X35.78606Y-10.54473
X38.32603Y-10.54473
X40.86603Y-10.54473
X43.40603Y-10.54473
X45.94603Y-10.54473
X48.48603Y-10.54473
X51.02601Y-10.54473
X53.56601Y-10.54473
X56.10601Y-10.54473
X58.64601Y-10.54473
X61.18601Y-10.54473
X63.72598Y-10.54473
X66.26598Y-10.54473
X68.80598Y-10.54473
X71.34598Y-10.54473
X73.88598Y-10.54473
X76.42596Y-10.54473
M30