G04 Layer: TopSolderMaskLayer*
G04 EasyEDA Pro v2.2.40.8, 2025-09-20 19:13:23*
G04 Gerber Generator version 0.3*
G04 Scale: 100 percent, Rotated: No, Reflected: No*
G04 Dimensions in millimeters*
G04 Leading zeros omitted, absolute positions, 4 integers and 5 decimals*
G04 Generated by one-click*
%FSLAX45Y45*%
%MOMM*%
%AMRoundRect*1,1,$1,$2,$3*1,1,$1,$4,$5*1,1,$1,0-$2,0-$3*1,1,$1,0-$4,0-$5*20,1,$1,$2,$3,$4,$5,0*20,1,$1,$4,$5,0-$2,0-$3,0*20,1,$1,0-$2,0-$3,0-$4,0-$5,0*20,1,$1,0-$4,0-$5,$2,$3,0*4,1,4,$2,$3,$4,$5,0-$2,0-$3,0-$4,0-$5,$2,$3,0*%
%ADD10RoundRect,0.09131X-0.40514X0.45514X0.40514X0.45514*%
%ADD11RoundRect,0.09691X-1.00234X1.50234X1.00234X1.50234*%
%ADD12RoundRect,0.08109X-0.16026X0.63526X0.16026X0.63526*%
%ADD13RoundRect,0.09138X-0.40835X0.43711X0.40835X0.43711*%
%ADD14C,1.6*%
%ADD15C,0.8250*%
G75*


G04 Pad Start*
G54D10*
G01X3787999Y6330D03*
G01X3928003Y6330D03*
G54D11*
G01X1126696Y-2526561D03*
G54D12*
G01X322710Y-2294049D03*
G01X372697Y-2294049D03*
G01X422709Y-2294049D03*
G01X472697Y-2294049D03*
G01X522709Y-2294049D03*
G01X572696Y-2294049D03*
G01X622709Y-2294049D03*
G01X672696Y-2294049D03*
G01X722709Y-2294049D03*
G01X772696Y-2294049D03*
G01X822709Y-2294049D03*
G01X872696Y-2294049D03*
G01X922708Y-2294049D03*
G01X972696Y-2294049D03*
G54D11*
G01X168709Y-2526561D03*
G01X8955992Y-2186727D03*
G54D12*
G01X8152006Y-1954215D03*
G01X8201993Y-1954215D03*
G01X8252005Y-1954215D03*
G01X8301993Y-1954215D03*
G01X8352005Y-1954215D03*
G01X8401992Y-1954215D03*
G01X8452005Y-1954215D03*
G01X8501992Y-1954215D03*
G01X8552005Y-1954215D03*
G01X8601992Y-1954215D03*
G01X8652005Y-1954215D03*
G01X8701992Y-1954215D03*
G01X8752004Y-1954215D03*
G01X8801992Y-1954215D03*
G54D11*
G01X7998005Y-2186727D03*
G54D13*
G01X1566860Y-2070471D03*
G01X1416187Y-2070471D03*
G01X1909117Y-573679D03*
G01X1758445Y-573679D03*
G54D14*
G01X3070606Y-3594468D03*
G01X3324606Y-3594468D03*
G01X3578606Y-3594468D03*
G01X3832606Y-3594468D03*
G01X4086606Y-3594468D03*
G01X4340606Y-3594468D03*
G01X4594606Y-3594468D03*
G01X4848606Y-3594468D03*
G01X5102606Y-3594468D03*
G01X5356606Y-3594468D03*
G01X5610606Y-3594468D03*
G01X5864606Y-3594468D03*
G01X6118606Y-3594468D03*
G01X6372606Y-3594468D03*
G01X6626606Y-3594468D03*
G01X6880606Y-3594468D03*
G01X7134606Y-3594468D03*
G01X7388606Y-3594468D03*
G01X7642606Y-3594468D03*
G01X3070606Y-1054468D03*
G01X3324606Y-1054468D03*
G01X3578606Y-1054468D03*
G01X3832606Y-1054468D03*
G01X4086606Y-1054468D03*
G01X4340606Y-1054468D03*
G01X4594606Y-1054468D03*
G01X4848606Y-1054468D03*
G01X5102606Y-1054468D03*
G01X5356606Y-1054468D03*
G01X5610606Y-1054468D03*
G01X5864606Y-1054468D03*
G01X6118606Y-1054468D03*
G01X6372606Y-1054468D03*
G01X6626606Y-1054468D03*
G01X6880606Y-1054468D03*
G01X7134606Y-1054468D03*
G01X7388606Y-1054468D03*
G01X7642606Y-1054468D03*
G04 Pad End*

M02*

