G04 Layer: TopLayer*
G04 EasyEDA Pro v2.2.40.8, 2025-09-20 19:13:23*
G04 Gerber Generator version 0.3*
G04 Scale: 100 percent, Rotated: No, Reflected: No*
G04 Dimensions in millimeters*
G04 Leading zeros omitted, absolute positions, 4 integers and 5 decimals*
G04 Generated by one-click*
%FSLAX45Y45*%
%MOMM*%
%ADD10R,0.8X0.9*%
%ADD11R,2.0X2.99999*%
%ADD12R,0.3X1.25001*%
%ADD13R,0.80648X0.86401*%
%ADD14C,1.5*%
%ADD15C,0.61*%
%ADD16C,0.2580*%
%ADD17C,0.254*%
G75*


G04 Pad Start*
G54D10*
G01X3787999Y6330D03*
G01X3928003Y6330D03*
G54D11*
G01X1126696Y-2526561D03*
G54D12*
G01X322710Y-2294049D03*
G01X372697Y-2294049D03*
G01X422709Y-2294049D03*
G01X472697Y-2294049D03*
G01X522709Y-2294049D03*
G01X572696Y-2294049D03*
G01X622709Y-2294049D03*
G01X672696Y-2294049D03*
G01X722709Y-2294049D03*
G01X772696Y-2294049D03*
G01X822709Y-2294049D03*
G01X872696Y-2294049D03*
G01X922708Y-2294049D03*
G01X972696Y-2294049D03*
G54D11*
G01X168709Y-2526561D03*
G01X8955992Y-2186727D03*
G54D12*
G01X8152006Y-1954215D03*
G01X8201993Y-1954215D03*
G01X8252005Y-1954215D03*
G01X8301993Y-1954215D03*
G01X8352005Y-1954215D03*
G01X8401992Y-1954215D03*
G01X8452005Y-1954215D03*
G01X8501992Y-1954215D03*
G01X8552005Y-1954215D03*
G01X8601992Y-1954215D03*
G01X8652005Y-1954215D03*
G01X8701992Y-1954215D03*
G01X8752004Y-1954215D03*
G01X8801992Y-1954215D03*
G54D11*
G01X7998005Y-2186727D03*
G54D13*
G01X1566860Y-2070471D03*
G01X1416187Y-2070471D03*
G01X1909117Y-573679D03*
G01X1758445Y-573679D03*
G54D14*
G01X3070606Y-3594468D03*
G01X3324606Y-3594468D03*
G01X3578606Y-3594468D03*
G01X3832606Y-3594468D03*
G01X4086606Y-3594468D03*
G01X4340606Y-3594468D03*
G01X4594606Y-3594468D03*
G01X4848606Y-3594468D03*
G01X5102606Y-3594468D03*
G01X5356606Y-3594468D03*
G01X5610606Y-3594468D03*
G01X5864606Y-3594468D03*
G01X6118606Y-3594468D03*
G01X6372606Y-3594468D03*
G01X6626606Y-3594468D03*
G01X6880606Y-3594468D03*
G01X7134606Y-3594468D03*
G01X7388606Y-3594468D03*
G01X7642606Y-3594468D03*
G01X3070606Y-1054468D03*
G01X3324606Y-1054468D03*
G01X3578606Y-1054468D03*
G01X3832606Y-1054468D03*
G01X4086606Y-1054468D03*
G01X4340606Y-1054468D03*
G01X4594606Y-1054468D03*
G01X4848606Y-1054468D03*
G01X5102606Y-1054468D03*
G01X5356606Y-1054468D03*
G01X5610606Y-1054468D03*
G01X5864606Y-1054468D03*
G01X6118606Y-1054468D03*
G01X6372606Y-1054468D03*
G01X6626606Y-1054468D03*
G01X6880606Y-1054468D03*
G01X7134606Y-1054468D03*
G01X7388606Y-1054468D03*
G01X7642606Y-1054468D03*
G04 Pad End*

G04 Via Start*
G54D15*
G01X852909Y-2471849D03*
G01X2961109Y-1278049D03*
G01X4294825Y-3894249D03*
G01X1546116Y-1054468D03*
G01X2912003Y-1136670D03*
G01X4687192Y-785815D03*
G01X3594992Y-785815D03*
G01X673509Y-2421049D03*
G01X799696Y-2090849D03*
G01X773509Y-2421049D03*
G01X3034109Y-1354249D03*
G01X798096Y-2167049D03*
G01X975109Y-2446449D03*
G01X2549909Y-1354249D03*
G04 Via End*

G04 Track Start*
G54D17*
G01X572696Y-2294049D02*
G01X572696Y-2192449D01*
G01X750496Y-2014649D01*
G01X1360366Y-2014649D01*
G01X1416187Y-2070471D01*
G01X8752004Y-1954215D02*
G01X8752004Y-2640015D01*
G01X7685204Y-3706815D01*
G01X6085004Y-3706815D01*
G01X5983404Y-3605215D01*
G01X5983404Y-3554415D01*
G01X5907204Y-3478215D01*
G01X3186859Y-3478215D01*
G01X3070606Y-3594468D01*
G01X8701992Y-1954215D02*
G01X8701992Y-2535083D01*
G01X7642606Y-3594468D01*
G01X472697Y-2294049D02*
G01X472697Y-2217849D01*
G01X1758445Y-932101D01*
G01X1758445Y-573679D01*
G01X1566860Y-2070471D02*
G01X2430460Y-1206871D01*
G01X3680203Y-1206871D01*
G01X3832606Y-1054468D01*
G01X522709Y-2294049D02*
G01X522709Y-2370249D01*
G01X675109Y-2522649D01*
G01X802109Y-2522649D01*
G01X852909Y-2471849D01*
G01X2961109Y-1278049D02*
G01X3863025Y-1278049D01*
G01X4086606Y-1054468D01*
G01X3787999Y6330D02*
G01X3787999Y-337076D01*
G01X3070606Y-1054468D01*
G01X3787999Y6330D02*
G01X4676999Y-882670D01*
G01X7619495Y-882670D01*
G01X8601992Y-1865168D01*
G01X8601992Y-1954215D01*
G01X8652005Y-1954215D01*
G01X8552005Y-1954215D02*
G01X8552005Y-2030415D01*
G01X7104205Y-3478215D01*
G01X6488859Y-3478215D01*
G01X6372606Y-3594468D01*
G01X922708Y-2294049D02*
G01X922708Y-2217849D01*
G01X948108Y-2192449D01*
G01X1506908Y-2192449D01*
G01X3030908Y-3716449D01*
G01X5234625Y-3716449D01*
G01X5356606Y-3594468D01*
G01X872696Y-2294049D02*
G01X872696Y-2192449D01*
G01X923496Y-2141649D01*
G01X4269425Y-2141649D01*
G01X5356606Y-1054468D01*
G01X972696Y-2294049D02*
G01X1531496Y-2294049D01*
G01X3004696Y-3767249D01*
G01X5437825Y-3767249D01*
G01X5610606Y-3594468D01*
G01X422709Y-2294049D02*
G01X422709Y-2370249D01*
G01X1870509Y-3818049D01*
G01X5641025Y-3818049D01*
G01X5864606Y-3594468D01*
G01X322710Y-2294049D02*
G01X322710Y-2370249D01*
G01X1846710Y-3894249D01*
G01X4294825Y-3894249D01*
G01X372697Y-2294049D02*
G01X372697Y-2217849D01*
G01X1540130Y-1050416D01*
G01X1542063Y-1050416D01*
G01X1546116Y-1054468D01*
G01X3928003Y6330D02*
G01X3851803Y82530D01*
G01X3724803Y82530D01*
G01X3068594Y-573679D02*
G01X1909117Y-573679D01*
G01X2912003Y-730270D02*
G01X2912003Y-1136670D01*
G01X8801992Y-1954215D02*
G01X8801992Y-1878015D01*
G01X7760592Y-836615D01*
G01X4737992Y-836615D01*
G01X4687192Y-785815D01*
G01X3594992Y-785815D02*
G01X3593259Y-785815D01*
G01X3324606Y-1054468D01*
G01X622709Y-2294049D02*
G01X622709Y-2370249D01*
G01X673509Y-2421049D01*
G01X672696Y-2294049D02*
G01X672696Y-2167049D01*
G01X748896Y-2090849D01*
G01X799696Y-2090849D01*
G01X722709Y-2294049D02*
G01X722709Y-2370249D01*
G01X773509Y-2421049D01*
G01X3034109Y-1354249D02*
G01X4710509Y-1354249D01*
G01X4989909Y-1074849D01*
G01X4989909Y-998649D01*
G01X5040709Y-947849D01*
G01X6011987Y-947849D01*
G01X6118606Y-1054468D01*
G01X772696Y-2294049D02*
G01X772696Y-2192449D01*
G01X798096Y-2167049D01*
G01X822709Y-2294049D02*
G01X822709Y-2370249D01*
G01X848109Y-2395649D01*
G01X924309Y-2395649D01*
G01X975109Y-2446449D01*
G01X2549909Y-1354249D02*
G01X2626109Y-1430449D01*
G01X4726625Y-1430449D01*
G01X5102606Y-1054468D01*
G01X3068594Y-573679D02*
G01X2912003Y-730270D01*
G01X3724803Y82530D02*
G01X3068594Y-573679D01*
G04 Track End*

M02*

