G04 Layer: TopPasteMaskLayer*
G04 EasyEDA Pro v2.2.40.8, 2025-09-20 19:13:23*
G04 Gerber Generator version 0.3*
G04 Scale: 100 percent, Rotated: No, Reflected: No*
G04 Dimensions in millimeters*
G04 Leading zeros omitted, absolute positions, 4 integers and 5 decimals*
G04 Generated by one-click*
%FSLAX45Y45*%
%MOMM*%
%ADD10R,0.8X0.9*%
%ADD11R,2.0X2.99999*%
%ADD12R,0.3X1.25001*%
%ADD13C,0.6763*%
G75*


G04 PolygonModel Start*
G36*
G01X1611025Y-2025472D02*
G01X1531026Y-2025472D01*
G01X1526024Y-2030473D01*
G01X1526024Y-2053270D01*
G01X1563025Y-2053270D01*
G01X1563025Y-2086270D01*
G01X1526024Y-2086270D01*
G01X1526024Y-2110473D01*
G01X1531026Y-2115472D01*
G01X1611025Y-2115472D01*
G01X1616024Y-2110473D01*
G01X1616024Y-2030473D01*
G01X1611025Y-2025472D01*
G37*
G36*
G01X1372022Y-2115469D02*
G01X1452021Y-2115469D01*
G01X1457023Y-2110468D01*
G01X1457023Y-2087672D01*
G01X1420023Y-2087672D01*
G01X1420023Y-2054672D01*
G01X1457023Y-2054672D01*
G01X1457023Y-2030468D01*
G01X1452021Y-2025470D01*
G01X1372022Y-2025470D01*
G01X1367023Y-2030468D01*
G01X1367023Y-2110468D01*
G01X1372022Y-2115469D01*
G37*
G36*
G01X1953283Y-528681D02*
G01X1873283Y-528681D01*
G01X1868282Y-533682D01*
G01X1868282Y-556478D01*
G01X1905282Y-556478D01*
G01X1905282Y-589478D01*
G01X1868282Y-589478D01*
G01X1868282Y-613682D01*
G01X1873283Y-618680D01*
G01X1953283Y-618680D01*
G01X1958282Y-613682D01*
G01X1958282Y-533682D01*
G01X1953283Y-528681D01*
G37*
G36*
G01X1714279Y-618678D02*
G01X1794279Y-618678D01*
G01X1799280Y-613677D01*
G01X1799280Y-590880D01*
G01X1762280Y-590880D01*
G01X1762280Y-557881D01*
G01X1799280Y-557881D01*
G01X1799280Y-533677D01*
G01X1794279Y-528678D01*
G01X1714279Y-528678D01*
G01X1709280Y-533677D01*
G01X1709280Y-613677D01*
G01X1714279Y-618678D01*
G37*

G04 Pad Start*
G54D10*
G01X3787999Y6330D03*
G01X3928003Y6330D03*
G54D11*
G01X1126696Y-2526561D03*
G54D12*
G01X322710Y-2294049D03*
G01X372697Y-2294049D03*
G01X422709Y-2294049D03*
G01X472697Y-2294049D03*
G01X522709Y-2294049D03*
G01X572696Y-2294049D03*
G01X622709Y-2294049D03*
G01X672696Y-2294049D03*
G01X722709Y-2294049D03*
G01X772696Y-2294049D03*
G01X822709Y-2294049D03*
G01X872696Y-2294049D03*
G01X922708Y-2294049D03*
G01X972696Y-2294049D03*
G54D11*
G01X168709Y-2526561D03*
G01X8955992Y-2186727D03*
G54D12*
G01X8152006Y-1954215D03*
G01X8201993Y-1954215D03*
G01X8252005Y-1954215D03*
G01X8301993Y-1954215D03*
G01X8352005Y-1954215D03*
G01X8401992Y-1954215D03*
G01X8452005Y-1954215D03*
G01X8501992Y-1954215D03*
G01X8552005Y-1954215D03*
G01X8601992Y-1954215D03*
G01X8652005Y-1954215D03*
G01X8701992Y-1954215D03*
G01X8752004Y-1954215D03*
G01X8801992Y-1954215D03*
G54D11*
G01X7998005Y-2186727D03*
G04 Pad End*

M02*

